<svg width="15" height="18" viewBox="0 0 15 18" fill="none" xmlns="http://www.w3.org/2000/svg">
<g clip-path="url(#clip0_1_54)">
<path d="M14.929 15.176L13.64 13.032C13.0453 12.0423 12.7311 10.9095 12.731 9.75496V7.87596C12.7289 6.74645 12.3627 5.64772 11.6869 4.74273C11.011 3.83774 10.0615 3.1747 8.97904 2.85196V1.50696C8.97904 1.10913 8.821 0.727602 8.5397 0.446298C8.25839 0.164993 7.87686 0.00695801 7.47904 0.00695801C7.08121 0.00695801 6.69968 0.164993 6.41838 0.446298C6.13707 0.727602 5.97904 1.10913 5.97904 1.50696V2.85196C4.89644 3.17452 3.94666 3.83749 3.27061 4.74249C2.59455 5.6475 2.22825 6.74632 2.22604 7.87596V9.75396C2.22568 10.9082 1.91147 12.0406 1.31704 13.03L0.0290393 15.175C-0.00476731 15.2319 -0.0229463 15.2967 -0.0236598 15.3629C-0.0243733 15.4291 -0.00759595 15.4943 0.024976 15.552C0.057548 15.6096 0.10476 15.6576 0.161838 15.6911C0.218917 15.7247 0.283838 15.7426 0.350039 15.743H14.607C14.6733 15.7429 14.7384 15.7254 14.7956 15.692C14.8529 15.6587 14.9003 15.6108 14.933 15.5531C14.9657 15.4955 14.9826 15.4303 14.9819 15.364C14.9812 15.2978 14.963 15.2329 14.929 15.176V15.176ZM5.11504 16.493C5.32617 16.9412 5.66046 17.3202 6.07886 17.5856C6.49727 17.851 6.98255 17.992 7.47804 17.992C7.97353 17.992 8.45881 17.851 8.87721 17.5856C9.29562 17.3202 9.6299 16.9412 9.84104 16.493H5.11504Z" fill="#000"/>
</g>
<defs>
<clipPath id="clip0_1_54">
<rect width="15" height="18" fill="white"/>
</clipPath>
</defs>
</svg>
