<svg width="18" height="16" viewBox="0 0 18 16" fill="none" xmlns="http://www.w3.org/2000/svg">
<g clip-path="url(#clip0_1_63)">
<path d="M9.00005 0C6.56221 0.052334 4.24448 1.09573 2.55667 2.90067C0.868869 4.70561 -0.05077 7.12427 4.61939e-05 9.62462C-0.00774043 11.8352 0.710918 13.984 2.04005 15.7243C2.23925 14.0418 3.81125 12.6178 6.01685 11.9385C6.40051 12.3417 6.8581 12.6632 7.36331 12.8845C7.86853 13.1058 8.4114 13.2224 8.96072 13.2278C9.51004 13.2332 10.055 13.1272 10.5642 12.9158C11.0735 12.7045 11.5369 12.392 11.928 11.9963C14.1516 12.7348 15.69 14.2363 15.7404 15.9889C17.2058 14.2095 18.0066 11.9538 18 9.62462C18.0509 7.12427 17.1312 4.70561 15.4434 2.90067C13.7556 1.09573 11.4379 0.052334 9.00005 0V0ZM9.00005 12.0911C8.43713 12.0881 7.88555 11.9286 7.40405 11.6295C6.78641 11.219 6.28216 10.6524 5.93981 9.98423C5.59745 9.31602 5.42851 8.5687 5.44925 7.81415C5.37737 6.76756 5.7093 5.7339 6.3735 4.93596C7.03769 4.13801 7.98097 3.63966 9.00005 3.54831C10.0205 3.63964 10.9649 4.13903 11.6293 4.9386C12.2937 5.73817 12.6247 6.77372 12.5508 7.82154C12.572 8.58611 12.3978 9.34305 12.0454 10.0171C11.6929 10.6912 11.1747 11.259 10.542 11.664C10.0735 11.9432 9.54189 12.0917 9.00005 12.0948V12.0911Z" fill="black"/>
</g>
<defs>
<clipPath id="clip0_1_63">
<rect width="18" height="16" fill="white"/>
</clipPath>
</defs>
</svg>
