<svg xmlns="http://www.w3.org/2000/svg" width="16" height="20"><path fill="#FFDD00" d="M4.018.017c-1.554 0-2.824 1.302-2.824 2.898v.399A1.69 1.69 0 0 0 .018 4.931v3.087c0 .934.745 1.69 1.669 1.69h4.651c.924 0 1.669-.756 1.669-1.69V4.931a1.7 1.7 0 0 0-1.176-1.617v-.399c0-1.596-1.26-2.898-2.814-2.898z"/><path fill="#619f00" d="M6.338 4.101h-.367V2.915c0-1.123-.882-2.037-1.953-2.037-1.081 0-1.963.913-1.963 2.037v1.186h-.367a.82.82 0 0 0-.808.829v3.087a.82.82 0 0 0 .808.829h4.651a.82.82 0 0 0 .808-.829V4.931a.82.82 0 0 0-.808-.829zM3.01 2.915c0-.588.451-1.071.997-1.071s.997.483.997 1.071v1.186H3.01z"/></svg>
