<svg width="18" height="12" viewBox="0 0 18 12" fill="none" xmlns="http://www.w3.org/2000/svg">
<g clip-path="url(#clip0_1_59)">
<path fill-rule="evenodd" clip-rule="evenodd" d="M6.9211 6.58001L0.979098 11.674C1.20403 11.884 1.5004 12.0005 1.8081 12H16.1911C16.4979 12.0004 16.7932 11.8838 17.0171 11.674L11.0781 6.58001L9.0001 8.40001L6.9211 6.58001ZM16.1911 8.87251e-06H1.8081C1.50059 -0.000659642 1.20456 0.116751 0.981098 0.328009L9.0001 7.20001L17.0201 0.325009C16.7952 0.115068 16.4987 -0.0011695 16.1911 8.87251e-06ZM0.600098 11.022L6.4001 6.09401L0.600098 1.05301V11.022ZM17.4001 11.022V1.04901L11.6001 6.09401L17.4001 11.022Z" fill="black"/>
</g>
<defs>
<clipPath id="clip0_1_59">
<rect width="18" height="12" fill="white"/>
</clipPath>
</defs>
</svg>
