<svg width="20" height="19" viewBox="0 0 20 19" fill="none" xmlns="http://www.w3.org/2000/svg">
<path d="M16.6664 8.14286C15.4286 8.14286 14.2415 7.64241 13.3662 6.75161C12.491 5.86082 11.9993 4.65264 11.9993 3.39286C11.9993 3.23841 12.0298 3.09252 12.0439 2.94188C11.372 2.79326 10.6863 2.71823 9.99867 2.71809C7.29117 2.77704 4.71741 3.92758 2.84297 5.91688C0.968523 7.90618 -0.0532618 10.5715 0.00214097 13.3271C-0.00113378 15.3279 0.537929 17.2909 1.56002 19H2.58465C3.01954 18.2208 3.60828 17.5417 4.31378 17.0056C5.01928 16.4694 5.82624 16.0877 6.68383 15.8847C7.11015 16.3293 7.61862 16.6838 8.17999 16.9279C8.74137 17.1719 9.34459 17.3006 9.95499 17.3065C10.5654 17.3125 11.1709 17.1957 11.7368 16.9627C12.3027 16.7297 12.8178 16.3852 13.2524 15.949C14.0726 16.1634 14.8418 16.5442 15.5139 17.0685C16.186 17.5927 16.7471 18.2497 17.1637 19H18.4381C19.4464 17.3075 19.9844 15.3683 19.9948 13.3891C20.0052 11.4098 19.4876 9.46484 18.4972 7.7615C17.9186 8.01344 17.2957 8.14318 16.6664 8.14286V8.14286ZM11.7124 15.5763C11.1826 15.8927 10.5784 16.0565 9.96416 16.0504C9.34996 16.0443 8.74894 15.8685 8.2253 15.5417C7.53944 15.0894 6.97938 14.4652 6.59891 13.7291C6.21844 12.9929 6.03035 12.1696 6.0527 11.3381C5.97069 10.1827 6.33861 9.04076 7.07697 8.15911C7.81534 7.27747 8.86486 6.72686 9.9988 6.62625C11.1327 6.727 12.1822 7.27764 12.9205 8.15925C13.6589 9.04086 14.0269 10.1827 13.945 11.3381C13.9687 12.1814 13.775 13.0163 13.3834 13.7599C12.9917 14.5034 12.4156 15.1296 11.7124 15.5763V15.5763ZM17.0008 3.05249V0H15.9986V3.05249H12.992V4.07251H15.9987V7.1326H17.0009V4.07251H20V3.05249H17.0008Z" fill="black"/>
</svg>
